<svg width="60" height="60" viewBox="0 0 60 60" fill="none" xmlns="http://www.w3.org/2000/svg">
<circle cx="30" cy="30" r="30" fill="#EC6639"/>
<path d="M12 28H14V40H12C11.7373 40.0003 11.4771 39.9488 11.2343 39.8484C10.9915 39.748 10.7709 39.6007 10.5851 39.4149C10.3993 39.2291 10.252 39.0085 10.1516 38.7657C10.0512 38.5229 9.99969 38.2627 10 38V30C9.99969 29.7373 10.0512 29.4771 10.1516 29.2343C10.252 28.9915 10.3993 28.7709 10.5851 28.5851C10.7709 28.3993 10.9915 28.252 11.2343 28.1516C11.4771 28.0512 11.7373 27.9997 12 28ZM44 25V42C43.9989 43.0605 43.5772 44.0773 42.8273 44.8273C42.0773 45.5772 41.0605 45.9989 40 46H20C18.9395 45.9989 17.9226 45.5772 17.1727 44.8273C16.4228 44.0773 16.001 43.0605 16 42V25C15.9998 24.3433 16.129 23.6931 16.3802 23.0863C16.6314 22.4796 16.9997 21.9283 17.464 21.464C17.9283 20.9997 18.4796 20.6314 19.0863 20.3802C19.6931 20.129 20.3433 19.9998 21 20H28V16C28 15.4696 28.2107 14.9609 28.5858 14.5858C28.9609 14.2107 29.4696 14 30 14C30.5304 14 31.0391 14.2107 31.4142 14.5858C31.7893 14.9609 32 15.4696 32 16V20H39C39.6567 19.9998 40.3069 20.129 40.9137 20.3802C41.5204 20.6314 42.0717 20.9997 42.536 21.464C43.0003 21.9283 43.3686 22.4796 43.6198 23.0863C43.871 23.6931 44.0002 24.3433 44 25ZM26.5 30C26.5 29.5055 26.3534 29.0222 26.0787 28.6111C25.804 28.1999 25.4135 27.8795 24.9567 27.6903C24.4999 27.5011 23.9972 27.4516 23.5123 27.548C23.0273 27.6445 22.5819 27.8826 22.2322 28.2322C21.8826 28.5819 21.6445 29.0273 21.548 29.5123C21.4516 29.9972 21.5011 30.4999 21.6903 30.9567C21.8795 31.4135 22.2 31.804 22.6111 32.0787C23.0222 32.3534 23.5055 32.5 24 32.5C24.3283 32.5 24.6534 32.4354 24.9567 32.3097C25.2601 32.1841 25.5357 32 25.7678 31.7678C26 31.5357 26.1841 31.2601 26.3097 30.9567C26.4354 30.6534 26.5 30.3283 26.5 30ZM26 38H22V40H26V38ZM32 38H28V40H32V38ZM38.5 30C38.5 29.5055 38.3534 29.0222 38.0787 28.6111C37.804 28.1999 37.4135 27.8795 36.9567 27.6903C36.4999 27.5011 35.9972 27.4516 35.5123 27.548C35.0273 27.6445 34.5819 27.8826 34.2322 28.2322C33.8826 28.5819 33.6445 29.0273 33.548 29.5123C33.4516 29.9972 33.5011 30.4999 33.6903 30.9567C33.8795 31.4135 34.2 31.804 34.6111 32.0787C35.0222 32.3534 35.5055 32.5 36 32.5C36.3283 32.5 36.6534 32.4354 36.9567 32.3097C37.2601 32.1841 37.5357 32 37.7678 31.7678C38 31.5357 38.1841 31.2601 38.3097 30.9567C38.4354 30.6534 38.5 30.3283 38.5 30ZM38 38H34V40H38V38ZM50 30V38C50.0003 38.2627 49.9488 38.5229 49.8484 38.7657C49.748 39.0085 49.6007 39.2291 49.4149 39.4149C49.2291 39.6007 49.0085 39.748 48.7657 39.8484C48.5229 39.9488 48.2627 40.0003 48 40H46V28H48C48.2627 27.9997 48.5229 28.0512 48.7657 28.1516C49.0085 28.252 49.2291 28.3993 49.4149 28.5851C49.6007 28.7709 49.748 28.9915 49.8484 29.2343C49.9488 29.4771 50.0003 29.7373 50 30Z" fill="white"/>
</svg>
