<svg width="150" height="60" viewBox="0 0 150 60" fill="none" xmlns="http://www.w3.org/2000/svg">
    <g clip-path="url(#clip0_1_44)">
        <mask id="mask0_1_44" style="mask-type:luminance" maskUnits="userSpaceOnUse" x="0" y="0" width="150" height="60">
            <path d="M0 1.32837e-06H150V59.8656H0V1.32837e-06Z" fill="white"/>
        </mask>
        <g mask="url(#mask0_1_44)">
            <path d="M46.4994 47.8945C49.709 54.9556 56.8236 59.8656 65.0854 59.8656C73.3472 59.8656 80.4618 54.9556 83.6714 47.8945H46.4994ZM52.4956 42.2713C52.2942 41.3657 52.1848 40.4257 52.1848 39.4596C52.1848 32.3348 57.9606 26.5588 65.0854 26.5588C72.2104 26.5588 77.9862 32.3348 77.9862 39.4596C77.9862 40.4257 77.8766 41.3657 77.6752 42.2713H85.2976C85.4243 41.352 85.4914 40.4138 85.4914 39.4596C85.4914 28.1897 76.3554 19.0536 65.0854 19.0536C53.8154 19.0536 44.6794 28.1897 44.6794 39.4596C44.6794 40.4138 44.7465 41.352 44.8732 42.2713H52.4956ZM112.248 32.9791C112.248 29.7158 109.603 27.0704 106.34 27.0704H96.3067V27.1392V38.885V38.8878H106.34C109.603 38.8878 112.248 36.2422 112.248 32.9791ZM120.068 59.3401H112.454C112.248 59.3401 112.057 59.2337 111.948 59.0587L104.088 46.4145L96.3067 46.379V46.4145V58.9425C96.3067 59.1622 96.1288 59.3401 95.9091 59.3401H88.7522C88.5326 59.3401 88.3546 59.1622 88.3546 58.9425V19.9767C88.3546 19.7571 88.5326 19.5792 88.7522 19.5792H106.062C113.438 19.5792 119.64 25.4216 119.738 32.7971C119.811 38.2678 116.603 42.9946 111.959 45.1438L120.406 58.7327C120.571 58.9975 120.38 59.3401 120.068 59.3401ZM72.9433 12.4377C74.4148 13.7131 76.6831 14.5507 78.8151 14.5507C81.9534 14.5507 84.3785 12.798 84.3785 10.21C84.3785 6.9289 80.4453 5.95079 79.2023 5.68569C77.9185 5.4208 76.6344 4.993 76.6344 4.07582C76.6344 3.34229 77.5311 2.81229 78.7946 2.81229C80.0512 2.81229 81.3625 3.30738 82.19 4.01933C82.2598 4.07941 82.3643 4.06481 82.4123 3.98611L83.7226 1.83841C83.7603 1.77705 83.751 1.69686 83.6979 1.64841C82.6478 0.692937 80.9144 3.1846e-05 78.8151 3.1846e-05C75.5747 3.1846e-05 73.3942 1.67105 73.3942 4.1981C73.3942 6.68432 75.4932 8.00899 78.3055 8.68159C79.7932 9.04825 81.1382 9.37429 81.1382 10.3526C81.1382 11.1881 80.0581 11.7384 78.7946 11.7384C77.3599 11.7384 75.7357 11.0559 74.5982 10.0568C74.5312 9.99801 74.4302 10.0101 74.3801 10.0839L72.919 12.239C72.8762 12.3019 72.886 12.3878 72.9433 12.4377ZM64.0064 8.92596L65.8405 3.72926L67.6746 8.92596H64.0064ZM69.4995 14.1081C69.5416 14.2268 69.6539 14.3061 69.7798 14.3061H72.8193C72.9232 14.3061 72.9951 14.2022 72.9585 14.1049L67.8084 0.437148C67.7646 0.321205 67.6537 0.244614 67.5299 0.244614H64.2124C64.0885 0.244614 63.9776 0.321413 63.934 0.437568L58.8037 14.1049C58.7671 14.2022 58.8391 14.3061 58.9429 14.3061H61.901C62.0269 14.3061 62.1392 14.2268 62.1815 14.1081L62.9874 11.8402H68.6936L69.4995 14.1081ZM57.4801 0.244614H53.9553C53.8457 0.244614 53.745 0.304701 53.6931 0.401391L50.0479 7.1938L46.423 0.402023C46.3714 0.305122 46.2704 0.244614 46.1606 0.244614H42.5751C42.4928 0.244614 42.4263 0.311049 42.4263 0.393352V14.1574C42.4263 14.2395 42.4928 14.3061 42.5751 14.3061H45.4362C45.5183 14.3061 45.5849 14.2395 45.5849 14.1574V5.27819L49.1309 11.9422H50.9242L54.4702 5.27819V14.1574C54.4702 14.2395 54.5369 14.3061 54.619 14.3061H57.4801C57.5624 14.3061 57.6291 14.2395 57.6291 14.1574V0.393352C57.6291 0.311049 57.5624 0.244614 57.4801 0.244614ZM33.4198 11.5142C31.0353 11.5142 29.2215 9.70033 29.2215 7.27525C29.2215 4.85018 31.0353 3.03656 33.4198 3.03656C35.804 3.03656 37.6179 4.85018 37.6179 7.27525C37.6179 9.70033 35.804 11.5142 33.4198 11.5142ZM33.4198 14.5507C37.6382 14.5507 40.8579 11.4124 40.8579 7.27525C40.8579 3.13832 37.6382 3.1846e-05 33.4198 3.1846e-05C29.1809 3.1846e-05 25.9814 3.13832 25.9814 7.27525C25.9814 11.4124 29.1809 14.5507 33.4198 14.5507ZM24.244 0.244614H21.3829C21.3008 0.244614 21.2341 0.311049 21.2341 0.393352V5.74683H15.5891V0.393352C15.5891 0.311049 15.5224 0.244614 15.4403 0.244614H12.5792C12.4969 0.244614 12.4303 0.311049 12.4303 0.393352V14.1574C12.4303 14.2395 12.4969 14.3061 12.5792 14.3061H15.4403C15.5224 14.3061 15.5891 14.2395 15.5891 14.1574V8.72222H21.2341V14.1574C21.2341 14.2395 21.3008 14.3061 21.3829 14.3061H24.244C24.3263 14.3061 24.3927 14.2395 24.3927 14.1574V0.393352C24.3927 0.311049 24.3263 0.244614 24.244 0.244614ZM10.9844 3.07104V0.393352C10.9844 0.311049 10.9177 0.244614 10.8356 0.244614H0.14875C0.0666588 0.244614 1.52588e-05 0.311049 1.52588e-05 0.393352V3.07104C1.52588e-05 3.15334 0.0666588 3.21999 0.14875 3.21999H3.91288V14.1574C3.91288 14.2395 3.97932 14.3061 4.06162 14.3061H6.92275C7.00484 14.3061 7.07149 14.2395 7.07149 14.1574V3.21999H10.8356C10.9177 3.21999 10.9844 3.15334 10.9844 3.07104ZM132.208 27.0704H149.602C149.822 27.0704 150 26.8925 150 26.6729V19.9767C150 19.7571 149.822 19.5792 149.602 19.5792H132.208C126.782 19.5792 122.383 23.9778 122.383 29.4041V29.4045V49.5152C122.383 54.9414 126.782 59.3401 132.208 59.3401H149.602C149.822 59.3401 150 59.1622 150 58.9425V52.2464C150 52.0268 149.822 51.8488 149.602 51.8488H132.208C131.174 51.8488 130.335 51.0104 130.335 49.976V43.0901H147.729C147.949 43.0901 148.127 42.9121 148.127 42.6925V35.9964C148.127 35.7768 147.949 35.5988 147.729 35.5988H130.335V28.9433C130.335 27.9089 131.174 27.0704 132.208 27.0704ZM41.8161 19.9767V58.9425C41.8161 59.1622 41.6382 59.3401 41.4186 59.3401H34.2616C34.042 59.3401 33.8641 59.1622 33.8641 58.9425V32.0262L23.1267 52.7136H18.6317L7.95206 32.0262V58.9425C7.95206 59.1622 7.77413 59.3401 7.55452 59.3401H0.397564C0.177949 59.3401 1.52588e-05 59.1622 1.52588e-05 58.9425V19.9767C1.52588e-05 19.7571 0.177949 19.5792 0.397564 19.5792H9.54755C9.77098 19.5792 9.97578 19.704 10.078 19.9027L20.9369 41.0084L31.8533 19.9016C31.9557 19.7036 32.1601 19.5792 32.3831 19.5792H41.4186C41.6382 19.5792 41.8161 19.7571 41.8161 19.9767Z" fill="#EC6639"/>
        </g>
    </g>
    <defs>
        <clipPath id="clip0_1_44">
            <rect width="150" height="59.8656" fill="white"/>
        </clipPath>
    </defs>
</svg>
