<svg width="60" height="60" viewBox="0 0 60 60" fill="none" xmlns="http://www.w3.org/2000/svg">
<circle cx="30" cy="30" r="30" fill="#01293D"/>
<path d="M30.5 30C36.0234 30 40.5 25.5234 40.5 20C40.5 14.4766 36.0234 10 30.5 10C24.9766 10 20.5 14.4766 20.5 20C20.5 25.5234 24.9766 30 30.5 30ZM37.5 32.5H36.1953C34.4609 33.2969 32.5312 33.75 30.5 33.75C28.4688 33.75 26.5469 33.2969 24.8047 32.5H23.5C17.7031 32.5 13 37.2031 13 43V46.25C13 48.3203 14.6797 50 16.75 50H44.25C46.3203 50 48 48.3203 48 46.25V43C48 37.2031 43.2969 32.5 37.5 32.5Z" fill="white"/>
</svg>
